<svg width="26" height="25" viewBox="0 0 26 25" fill="none" xmlns="http://www.w3.org/2000/svg">
<path d="M0.75 23.338H24.53M4.9 0.75H13.818C14.764 0.75 15.6713 1.12581 16.3403 1.79475C17.0092 2.46369 17.385 3.37097 17.385 4.317V23.338H1.332V4.317C1.332 3.84849 1.4243 3.38457 1.60362 2.95174C1.78294 2.5189 2.04577 2.12564 2.3771 1.7944C2.70844 1.46316 3.10178 1.20043 3.53466 1.02123C3.96755 0.842035 4.43149 0.749869 4.9 0.75Z" stroke="white" stroke-width="1.5" stroke-linecap="round" stroke-linejoin="round"/>
<path d="M5.79102 5.50699H12.925M5.79102 10.263H12.925M17.383 8.47899H19.761C20.2297 8.47859 20.6939 8.57057 21.127 8.74965C21.5601 8.92873 21.9537 9.19141 22.2852 9.52268C22.6168 9.85394 22.8798 10.2473 23.0592 10.6803C23.2387 11.1132 23.331 11.5773 23.331 12.046V23.346M8.18102 15.019H10.559C11.0319 15.0195 11.4853 15.2075 11.8199 15.5417C12.1545 15.8759 12.343 16.3291 12.344 16.802V23.342H6.39802V16.802C6.39802 16.3291 6.58587 15.8756 6.92024 15.5412C7.25462 15.2068 7.70813 15.019 8.18102 15.019Z" stroke="white" stroke-width="1.5" stroke-linecap="round" stroke-linejoin="round"/>
</svg>
