<svg width="26" height="26" viewBox="0 0 26 26" fill="none" xmlns="http://www.w3.org/2000/svg">
<path d="M14.2862 1.31622C13.8896 1.1085 13.4485 1 13.0007 1C12.553 1 12.1119 1.1085 11.7152 1.31622L1.00024 6.98822L11.7142 12.6602C12.1109 12.8679 12.552 12.9764 12.9997 12.9764C13.4475 12.9764 13.8886 12.8679 14.2852 12.6602L25.0002 6.98822L14.2862 1.31622Z" stroke="white" stroke-width="2" stroke-linejoin="round"/>
<path d="M1.00024 13.2302L10.4292 18.2222C11.2225 18.6377 12.1047 18.8548 13.0002 18.8548C13.8958 18.8548 14.778 18.6377 15.5712 18.2222L25.0002 13.2302" stroke="white" stroke-width="2" stroke-linecap="round" stroke-linejoin="round"/>
<path d="M1.00024 18.8442L10.4292 23.8362C11.2225 24.2517 12.1047 24.4688 13.0002 24.4688C13.8958 24.4688 14.778 24.2517 15.5712 23.8362L25.0002 18.8442" stroke="white" stroke-width="2" stroke-linecap="round" stroke-linejoin="round"/>
</svg>
