<svg width="785" height="408" viewBox="0 0 785 408" fill="none" xmlns="http://www.w3.org/2000/svg">
<path d="M0 106.83L42.315 1.34097H69.7303L111.598 106.83H82.544L77.3291 91.9308H34.2692L28.9053 106.83H0ZM42.762 67.6443H68.8363L56.0226 31.4382L42.762 67.6443Z" fill="white"/>
<path d="M155.144 106.83V1.34097H182.112V106.83H155.144Z" fill="white"/>
<path d="M283.047 108.022C272.12 108.022 262.733 105.887 254.886 101.616C247.039 97.245 241.03 91.0865 236.858 83.14C232.686 75.0942 230.6 65.6081 230.6 54.6817C230.6 43.4573 232.735 33.7725 237.007 25.6274C241.377 17.3829 247.436 11.0754 255.184 6.70483C263.031 2.23494 272.17 0 282.6 0C290.844 0 298.343 1.48996 305.098 4.46989C311.952 7.44982 317.514 11.9197 321.786 17.8796C326.057 23.8394 328.59 31.3886 329.384 40.527H303.906C302.714 35.7591 300.479 32.0839 297.201 29.5013C293.923 26.8193 289.354 25.4784 283.494 25.4784C277.236 25.4784 272.269 26.869 268.594 29.6503C264.919 32.4315 262.286 35.9578 260.697 40.229C259.207 44.5002 258.462 48.9205 258.462 53.4897C258.462 58.0589 259.257 62.5785 260.846 67.0484C262.535 71.5183 265.217 75.2432 268.892 78.2231C272.666 81.1037 277.683 82.544 283.941 82.544C287.715 82.544 290.993 81.9977 293.774 80.905C296.556 79.7131 298.84 78.0244 300.628 75.8391C302.515 73.5545 303.807 70.8229 304.502 67.6443H330.576C329.98 76.5841 327.398 84.0836 322.829 90.1428C318.259 96.1027 312.448 100.573 305.396 103.552C298.443 106.532 290.993 108.022 283.047 108.022Z" fill="white"/>
<path d="M427.923 108.022C417.196 108.022 407.809 105.787 399.763 101.318C391.717 96.8476 385.459 90.5898 380.99 82.544C376.619 74.3989 374.434 64.9624 374.434 54.2347C374.434 43.2089 376.718 33.6732 381.288 25.6274C385.857 17.4822 392.214 11.1747 400.359 6.70483C408.504 2.23494 417.941 0 428.668 0C439.297 0 448.634 2.18528 456.68 6.55584C464.725 10.9264 471.033 17.1346 475.602 25.1804C480.171 33.1269 482.456 42.5633 482.456 53.4897C482.456 64.2174 480.171 73.7035 475.602 81.948C471.132 90.0931 464.775 96.5 456.531 101.169C448.386 105.738 438.85 108.022 427.923 108.022ZM428.519 82.544C434.877 82.544 439.992 81.1037 443.866 78.2231C447.74 75.2432 450.521 71.5679 452.21 67.1974C453.998 62.8268 454.892 58.5059 454.892 54.2347C454.892 51.0561 454.395 47.8278 453.402 44.5499C452.508 41.1727 451.018 38.0437 448.932 35.1631C446.945 32.2825 444.263 29.9483 440.886 28.1603C437.509 26.3724 433.337 25.4784 428.37 25.4784C422.113 25.4784 417.047 26.9187 413.173 29.7993C409.299 32.5805 406.468 36.1565 404.68 40.527C402.892 44.8976 401.998 49.4171 401.998 54.0857C401.998 58.7542 402.892 63.2738 404.68 67.6443C406.567 72.0149 409.448 75.5908 413.322 78.3721C417.295 81.1534 422.361 82.544 428.519 82.544Z" fill="white"/>
<path d="M530.917 106.83V1.34097H556.098L600.647 61.6845V1.34097H627.616V106.83H603.18L557.885 47.3808V106.83H530.917Z" fill="white"/>
<path d="M729.56 108.022C718.832 108.022 709.445 105.787 701.399 101.318C693.353 96.8476 687.096 90.5898 682.626 82.544C678.255 74.3989 676.07 64.9624 676.07 54.2347C676.07 43.2089 678.354 33.6732 682.924 25.6274C687.493 17.4822 693.85 11.1747 701.995 6.70483C710.14 2.23494 719.577 0 730.305 0C740.933 0 750.27 2.18528 758.316 6.55584C766.362 10.9264 772.669 17.1346 777.238 25.1804C781.808 33.1269 784.092 42.5633 784.092 53.4897C784.092 64.2174 781.808 73.7035 777.238 81.948C772.768 90.0931 766.411 96.5 758.167 101.169C750.022 105.738 740.486 108.022 729.56 108.022ZM730.156 82.544C736.513 82.544 741.628 81.1037 745.502 78.2231C749.376 75.2432 752.157 71.5679 753.846 67.1974C755.634 62.8268 756.528 58.5059 756.528 54.2347C756.528 51.0561 756.031 47.8278 755.038 44.5499C754.144 41.1727 752.654 38.0437 750.568 35.1631C748.581 32.2825 745.899 29.9483 742.522 28.1603C739.145 26.3724 734.973 25.4784 730.007 25.4784C723.749 25.4784 718.683 26.9187 714.809 29.7993C710.935 32.5805 708.104 36.1565 706.316 40.527C704.528 44.8976 703.634 49.4171 703.634 54.0857C703.634 58.7542 704.528 63.2738 706.316 67.6443C708.203 72.0149 711.084 75.5908 714.958 78.3721C718.931 81.1534 723.997 82.544 730.156 82.544Z" fill="white"/>
<rect x="317.41" y="142.021" width="149.27" height="265" rx="74.635" fill="white"/>
<circle cx="392.044" cy="220.894" r="51.23" fill="white"/>
<circle cx="392.044" cy="220.894" r="51.23" fill="url(#paint0_linear_471_4410)"/>
<path fill-rule="evenodd" clip-rule="evenodd" d="M390.413 223.424C390.452 212.545 376.841 206.081 368.827 213.016C368.471 213.325 368.31 213.808 368.395 214.271C370.54 225.989 381.927 228.582 389.696 224.591C390.134 224.367 390.412 223.916 390.413 223.424ZM372.923 214.518C372.534 214.797 372.354 215.283 372.446 215.754C373.76 222.489 381.376 224.476 386.114 222.704C386.603 222.521 386.923 222.048 386.866 221.529C386.314 216.525 378.204 210.726 372.923 214.518Z" fill="white"/>
<path fill-rule="evenodd" clip-rule="evenodd" d="M392.201 192.199C399.495 195.822 400.645 208.983 392.268 214.282C391.917 214.504 391.462 214.486 391.127 214.24C383.094 208.343 384.571 196.833 391.209 192.272C391.502 192.071 391.882 192.041 392.201 192.199ZM391.684 196.57C388.175 199.334 387.254 205.047 391.684 210.944C395.362 208.18 396.284 200.071 391.684 196.57Z" fill="white"/>
<path fill-rule="evenodd" clip-rule="evenodd" d="M433.693 220.711C433.693 197.608 414.964 178.879 391.861 178.879C368.758 178.879 350.029 197.608 350.029 220.711C350.029 226.721 351.297 232.435 353.579 237.601C353.659 237.783 353.871 237.866 354.055 237.791C354.988 237.41 355.909 237.06 356.818 236.74C357.023 236.667 357.123 236.434 357.034 236.235C354.917 231.493 353.74 226.239 353.74 220.711C353.74 199.657 370.807 182.589 391.861 182.589C412.915 182.589 429.982 199.657 429.982 220.711C429.982 229.808 426.796 238.16 421.478 244.714C421.283 244.954 421.446 245.315 421.756 245.316C423.059 245.321 424.377 245.248 425.714 245.086C425.816 245.074 425.908 245.019 425.968 244.935C430.832 238.1 433.693 229.739 433.693 220.711Z" fill="white"/>
<path fill-rule="evenodd" clip-rule="evenodd" d="M414.712 212.968C404.945 205.415 392.967 214.076 392.967 221.445L392.449 239.549C392.442 239.799 392.193 239.97 391.956 239.887C383.093 236.758 373.27 234.896 358.529 239.323C357.449 239.648 356.342 240.006 355.206 240.4C355.1 240.437 355.052 240.56 355.104 240.659L355.445 241.31C355.891 242.097 356.361 242.867 356.855 243.62C364.328 255.016 377.216 262.542 391.861 262.542C402.826 262.542 412.805 258.324 420.264 251.421C421.181 250.573 422.223 249.416 423.093 248.436C423.2 248.316 423.112 248.126 422.951 248.128C421.373 248.149 419.859 248.09 418.397 247.965C410.793 247.311 404.633 244.849 398.487 242.393L398.483 242.391C397.767 242.105 397.051 241.819 396.333 241.536C396.192 241.481 396.099 241.345 396.099 241.193V225.867C406.972 228.635 414.343 221.816 414.712 212.968ZM396.099 222.369C397.021 214.261 407.893 211.681 411.026 214.814C409.92 221.445 403.286 225.318 396.099 222.369ZM394.627 245.233C400.583 247.64 406.848 250.171 414.906 251.079C408.506 255.944 400.521 258.832 391.861 258.832C378.844 258.832 367.352 252.308 360.474 242.351C375.603 237.547 384.685 241.217 394.627 245.233Z" fill="white"/>
<defs>
<linearGradient id="paint0_linear_471_4410" x1="443.274" y1="220.894" x2="340.814" y2="220.894" gradientUnits="userSpaceOnUse">
<stop stop-color="#6FA580"/>
<stop offset="1" stop-color="#3E8186"/>
</linearGradient>
</defs>
</svg>
