<svg width="1084" height="150" viewBox="0 0 1084 150" fill="none" xmlns="http://www.w3.org/2000/svg">
<rect width="265" height="149.27" rx="74.6349" fill="white"/>
<circle cx="186.126" cy="74.6343" r="51.23" fill="white"/>
<circle cx="186.126" cy="74.6343" r="51.23" fill="url(#paint0_linear_471_4404)"/>
<path fill-rule="evenodd" clip-rule="evenodd" d="M184.495 77.1644C184.534 66.2856 170.923 59.8217 162.909 66.7566C162.553 67.0648 162.392 67.5481 162.477 68.0114C164.622 79.7287 176.009 82.3218 183.778 78.3317C184.216 78.107 184.494 77.6563 184.495 77.1644ZM167.005 68.2579C166.616 68.5373 166.436 69.0235 166.528 69.4939C167.842 76.2289 175.458 78.2163 180.196 76.4443C180.685 76.2615 181.005 75.788 180.948 75.2691C180.396 70.2655 172.286 64.4667 167.005 68.2579Z" fill="white"/>
<path fill-rule="evenodd" clip-rule="evenodd" d="M186.283 45.9392C193.577 49.5621 194.727 62.7232 186.35 68.022C185.999 68.244 185.544 68.2258 185.209 67.9801C177.176 62.0833 178.653 50.5736 185.291 46.0124C185.584 45.8108 185.964 45.7808 186.283 45.9392ZM185.766 50.3101C182.257 53.0743 181.336 58.787 185.766 64.684C189.444 61.9198 190.366 53.8114 185.766 50.3101Z" fill="white"/>
<path fill-rule="evenodd" clip-rule="evenodd" d="M227.775 74.4508C227.775 51.3478 209.046 32.6191 185.943 32.6191C162.84 32.6191 144.111 51.3478 144.111 74.4508C144.111 80.4611 145.379 86.1754 147.661 91.3409C147.741 91.5229 147.953 91.6061 148.137 91.5311C149.07 91.1505 149.991 90.8003 150.9 90.48C151.106 90.4076 151.205 90.1744 151.116 89.9754C148.999 85.2333 147.822 79.9796 147.822 74.4508C147.822 53.3971 164.889 36.3296 185.943 36.3296C206.997 36.3296 224.064 53.3971 224.064 74.4508C224.064 83.5479 220.878 91.9005 215.56 98.4538C215.365 98.6939 215.529 99.0552 215.838 99.0563C217.141 99.0609 218.459 98.9883 219.797 98.8262C219.898 98.8139 219.99 98.7592 220.05 98.6757C224.914 91.8398 227.775 83.4796 227.775 74.4508Z" fill="white"/>
<path fill-rule="evenodd" clip-rule="evenodd" d="M208.794 66.7079C199.027 59.1555 187.049 67.8161 187.049 75.1848L186.531 93.289C186.524 93.5396 186.275 93.7102 186.038 93.6268C177.175 90.4978 167.352 88.6359 152.611 93.0632C151.531 93.3878 150.424 93.7462 149.288 94.1404C149.182 94.1773 149.134 94.3001 149.186 94.3997L149.527 95.0507C149.973 95.8368 150.443 96.607 150.937 97.3604C158.411 108.756 171.298 116.283 185.943 116.283C196.908 116.283 206.887 112.064 214.346 105.161C215.263 104.313 216.305 103.156 217.175 102.176C217.282 102.056 217.194 101.866 217.033 101.868C215.455 101.889 213.941 101.83 212.479 101.705C204.875 101.051 198.715 98.5895 192.569 96.1333L192.565 96.1316C191.849 95.8455 191.133 95.5595 190.415 95.2764C190.274 95.2209 190.181 95.0848 190.181 94.9333V79.6076C201.054 82.3749 208.425 75.5565 208.794 66.7079ZM190.181 76.1094C191.103 68.001 201.975 65.4211 205.108 68.5539C204.003 75.1848 197.368 79.0578 190.181 76.1094ZM188.709 98.9736C194.665 101.38 200.93 103.911 208.988 104.819C202.588 109.684 194.603 112.572 185.943 112.572C172.926 112.572 161.434 106.048 154.556 96.0913C169.685 91.2875 178.767 94.9569 188.709 98.9736Z" fill="white"/>
<path d="M299 127.453L341.315 21.964H368.73L410.598 127.453H381.544L376.329 112.554H333.269L327.905 127.453H299ZM341.762 88.2674H367.836L355.023 52.0613L341.762 88.2674Z" fill="white"/>
<path d="M454.144 127.453V21.964H481.112V127.453H454.144Z" fill="white"/>
<path d="M582.047 128.645C571.12 128.645 561.733 126.51 553.886 122.239C546.039 117.868 540.03 111.709 535.858 103.763C531.686 95.7172 529.6 86.2311 529.6 75.3047C529.6 64.0803 531.735 54.3956 536.007 46.2504C540.377 38.006 546.436 31.6984 554.184 27.3279C562.031 22.858 571.17 20.623 581.6 20.623C589.844 20.623 597.343 22.113 604.098 25.0929C610.952 28.0729 616.514 32.5428 620.786 38.5026C625.057 44.4625 627.59 52.0116 628.384 61.1501H602.906C601.714 56.3822 599.479 52.7069 596.201 50.1243C592.923 47.4424 588.354 46.1014 582.494 46.1014C576.236 46.1014 571.269 47.4921 567.594 50.2733C563.919 53.0546 561.286 56.5808 559.697 60.8521C558.207 65.1233 557.462 69.5435 557.462 74.1127C557.462 78.682 558.257 83.2015 559.846 87.6714C561.535 92.1413 564.217 95.8662 567.892 98.8461C571.666 101.727 576.683 103.167 582.941 103.167C586.715 103.167 589.993 102.621 592.774 101.528C595.556 100.336 597.84 98.6475 599.628 96.4622C601.515 94.1776 602.807 91.446 603.502 88.2674H629.576C628.98 97.2072 626.398 104.707 621.829 110.766C617.259 116.726 611.448 121.196 604.396 124.176C597.443 127.155 589.993 128.645 582.047 128.645Z" fill="white"/>
<path d="M726.923 128.645C716.196 128.645 706.809 126.41 698.763 121.941C690.717 117.471 684.459 111.213 679.99 103.167C675.619 95.0219 673.434 85.5855 673.434 74.8577C673.434 63.832 675.718 54.2962 680.288 46.2504C684.857 38.1053 691.214 31.7978 699.359 27.3279C707.504 22.858 716.941 20.623 727.668 20.623C738.297 20.623 747.634 22.8083 755.68 27.1789C763.725 31.5494 770.033 37.7576 774.602 45.8034C779.171 53.7499 781.456 63.1863 781.456 74.1127C781.456 84.8405 779.171 94.3266 774.602 102.571C770.132 110.716 763.775 117.123 755.531 121.792C747.386 126.361 737.85 128.645 726.923 128.645ZM727.519 103.167C733.877 103.167 738.992 101.727 742.866 98.8461C746.74 95.8662 749.521 92.191 751.21 87.8204C752.998 83.4499 753.892 79.129 753.892 74.8577C753.892 71.6791 753.395 68.4509 752.402 65.173C751.508 61.7957 750.018 58.6668 747.932 55.7862C745.945 52.9056 743.263 50.5713 739.886 48.7834C736.509 46.9954 732.337 46.1014 727.37 46.1014C721.113 46.1014 716.047 47.5417 712.173 50.4223C708.299 53.2036 705.468 56.7795 703.68 61.1501C701.892 65.5206 700.998 70.0402 700.998 74.7087C700.998 79.3773 701.892 83.8968 703.68 88.2674C705.567 92.638 708.448 96.2139 712.322 98.9951C716.295 101.776 721.361 103.167 727.519 103.167Z" fill="white"/>
<path d="M829.917 127.453V21.964H855.098L899.647 82.3075V21.964H926.616V127.453H902.18L856.885 68.0039V127.453H829.917Z" fill="white"/>
<path d="M1028.56 128.645C1017.83 128.645 1008.45 126.41 1000.4 121.941C992.353 117.471 986.096 111.213 981.626 103.167C977.255 95.0219 975.07 85.5855 975.07 74.8577C975.07 63.832 977.354 54.2962 981.924 46.2504C986.493 38.1053 992.85 31.7978 1001 27.3279C1009.14 22.858 1018.58 20.623 1029.3 20.623C1039.93 20.623 1049.27 22.8083 1057.32 27.1789C1065.36 31.5494 1071.67 37.7576 1076.24 45.8034C1080.81 53.7499 1083.09 63.1863 1083.09 74.1127C1083.09 84.8405 1080.81 94.3266 1076.24 102.571C1071.77 110.716 1065.41 117.123 1057.17 121.792C1049.02 126.361 1039.49 128.645 1028.56 128.645ZM1029.16 103.167C1035.51 103.167 1040.63 101.727 1044.5 98.8461C1048.38 95.8662 1051.16 92.191 1052.85 87.8204C1054.63 83.4499 1055.53 79.129 1055.53 74.8577C1055.53 71.6791 1055.03 68.4509 1054.04 65.173C1053.14 61.7957 1051.65 58.6668 1049.57 55.7862C1047.58 52.9056 1044.9 50.5713 1041.52 48.7834C1038.14 46.9954 1033.97 46.1014 1029.01 46.1014C1022.75 46.1014 1017.68 47.5417 1013.81 50.4223C1009.93 53.2036 1007.1 56.7795 1005.32 61.1501C1003.53 65.5206 1002.63 70.0402 1002.63 74.7087C1002.63 79.3773 1003.53 83.8968 1005.32 88.2674C1007.2 92.638 1010.08 96.2139 1013.96 98.9951C1017.93 101.776 1023 103.167 1029.16 103.167Z" fill="white"/>
<defs>
<linearGradient id="paint0_linear_471_4404" x1="237.356" y1="74.6343" x2="134.896" y2="74.6343" gradientUnits="userSpaceOnUse">
<stop stop-color="#6FA580"/>
<stop offset="1" stop-color="#3E8186"/>
</linearGradient>
</defs>
</svg>
