<svg xmlns="http://www.w3.org/2000/svg" width="26.266" height="26.265" viewBox="0 0 26.266 26.265">
  <g id="Pen" transform="translate(0.76 0.758)">
    <path id="Path_14897" data-name="Path 14897" d="M16.556,23.582a1.258,1.258,0,0,1-1.779,0l-1.995-1.995a1.258,1.258,0,0,1,0-1.779l7.026-7.026a1.258,1.258,0,0,1,1.779,0l1.995,1.995a1.258,1.258,0,0,1,0,1.779Z" transform="translate(0.685 0.685)" fill="none" stroke="#000" stroke-linecap="round" stroke-linejoin="round" stroke-width="1.5"/>
    <path id="Path_14898" data-name="Path 14898" d="M22.125,15.836,20.4,7.19a1.258,1.258,0,0,0-.938-.976L3.553,2.035A1.258,1.258,0,0,0,2.035,3.553l4.178,15.9a1.258,1.258,0,0,0,.976.938l8.646,1.729M2.377,2.377l9.164,9.164" transform="translate(-2 -2)" fill="none" stroke="#000" stroke-linecap="round" stroke-linejoin="round" stroke-width="1.5"/>
    <circle id="Ellipse_5" data-name="Ellipse 5" cx="2.516" cy="2.516" r="2.516" transform="translate(8.805 8.805)" fill="none" stroke="#000" stroke-linecap="round" stroke-linejoin="round" stroke-width="1.5"/>
  </g>
</svg>
