<svg width="20" height="30" viewBox="0 0 20 30" fill="none" xmlns="http://www.w3.org/2000/svg">
<path fill-rule="evenodd" clip-rule="evenodd" d="M4 4.17087H7V25.1709H4C3.20435 25.1709 2.44129 24.8548 1.87868 24.2922C1.31607 23.7296 1 22.9665 1 22.1709V7.17087C1 6.37523 1.31607 5.61216 1.87868 5.04955C2.44129 4.48694 3.20435 4.17087 4 4.17087ZM11.053 1.19087L17.053 3.44087C17.6249 3.65524 18.1177 4.03905 18.4656 4.541C18.8135 5.04295 19 5.63914 19 6.24987V23.0919C19.0002 23.7028 18.8138 24.2992 18.4659 24.8013C18.118 25.3035 17.625 25.6874 17.053 25.9019L11.053 28.1519C10.5991 28.322 10.1106 28.3796 9.62957 28.3198C9.14849 28.2599 8.68909 28.0844 8.29069 27.8082C7.8923 27.5319 7.56677 27.1633 7.34199 26.7338C7.1172 26.3043 6.99986 25.8267 7 25.3419V3.99987C7.00002 3.51517 7.11748 3.0377 7.34233 2.60831C7.56719 2.17892 7.89273 1.8104 8.2911 1.5343C8.68948 1.2582 9.14882 1.08274 9.62982 1.02293C10.1108 0.963118 10.5991 1.02074 11.053 1.19087Z" stroke="white" stroke-width="2" stroke-linecap="round" stroke-linejoin="round"/>
<path d="M10 15.6709C10.5523 15.6709 11 15.2232 11 14.6709C11 14.1186 10.5523 13.6709 10 13.6709C9.44772 13.6709 9 14.1186 9 14.6709C9 15.2232 9.44772 15.6709 10 15.6709Z" fill="white"/>
</svg>
