<svg width="31" height="20" viewBox="0 0 31 20" fill="none" xmlns="http://www.w3.org/2000/svg">
<path d="M4.25889 1.00103C2.15319 3.52742 1 6.71217 1 10.001C1 13.2899 2.15319 16.4746 4.25889 19.001M9.16689 14.911C8.01879 13.5322 7.39011 11.7947 7.39011 10.0005C7.39011 8.20632 8.01879 6.46882 9.16689 5.09003M25.8579 19C27.9643 16.474 29.118 13.2891 29.118 10C29.118 6.71096 27.9643 3.52608 25.8579 1.00003M20.9499 14.91C22.0978 13.5317 22.7263 11.7947 22.7263 10.001C22.7263 8.20733 22.0978 6.47035 20.9499 5.09203M15.0569 11.28C14.8041 11.28 14.557 11.2051 14.3469 11.0646C14.1367 10.9242 13.9729 10.7246 13.8762 10.4911C13.7794 10.2576 13.7541 10.0006 13.8034 9.7527C13.8528 9.5048 13.9745 9.27708 14.1532 9.09835C14.3319 8.91962 14.5597 8.7979 14.8076 8.74859C15.0555 8.69928 15.3124 8.72458 15.546 8.82131C15.7795 8.91804 15.9791 9.08185 16.1195 9.29201C16.2599 9.50218 16.3349 9.74927 16.3349 10.002C16.3349 10.341 16.2002 10.666 15.9606 10.9057C15.7209 11.1454 15.3958 11.28 15.0569 11.28Z" stroke="white" stroke-width="2" stroke-linecap="round"/>
</svg>
