<svg width="362" height="217" viewBox="0 0 362 217" fill="none" xmlns="http://www.w3.org/2000/svg">
<rect x="146.496" width="68.8935" height="122.307" rx="34.4467" fill="url(#paint0_linear_470_4333)"/>
<circle cx="180.941" cy="36.4023" r="23.6445" fill="white"/>
<path fill-rule="evenodd" clip-rule="evenodd" d="M180.186 37.57C180.203 32.549 173.922 29.5657 170.223 32.7664C170.058 32.9086 169.984 33.1317 170.023 33.3455C171.013 38.7535 176.269 39.9503 179.855 38.1087C180.057 38.005 180.185 37.797 180.186 37.57ZM172.113 33.4593C171.934 33.5883 171.85 33.8127 171.893 34.0298C172.5 37.1382 176.015 38.0555 178.201 37.2377C178.427 37.1533 178.575 36.9347 178.548 36.6952C178.293 34.3859 174.551 31.7095 172.113 33.4593Z" fill="#6EA97D"/>
<path fill-rule="evenodd" clip-rule="evenodd" d="M181.011 23.1584C184.377 24.8305 184.908 30.9049 181.041 33.3505C180.88 33.4529 180.67 33.4445 180.515 33.3311C176.807 30.6095 177.489 25.2974 180.553 23.1922C180.688 23.0992 180.863 23.0853 181.011 23.1584ZM180.772 25.1757C179.153 26.4515 178.727 29.0881 180.772 31.8098C182.47 30.534 182.895 26.7917 180.772 25.1757Z" fill="#6EA97D"/>
<path fill-rule="evenodd" clip-rule="evenodd" d="M200.161 36.3176C200.161 25.6547 191.517 17.0107 180.854 17.0107C170.191 17.0107 161.547 25.6547 161.547 36.3176C161.547 39.0915 162.132 41.7289 163.185 44.113C163.222 44.1969 163.32 44.2354 163.405 44.2007C163.836 44.0251 164.261 43.8634 164.68 43.7156C164.775 43.6822 164.821 43.5746 164.78 43.4827C163.803 41.2941 163.259 38.8693 163.259 36.3176C163.259 26.6005 171.137 18.7232 180.854 18.7232C190.571 18.7232 198.448 26.6005 198.448 36.3176C198.448 40.5162 196.977 44.3713 194.523 47.3958C194.433 47.5066 194.508 47.6734 194.651 47.6739C195.253 47.676 195.861 47.6425 196.478 47.5677C196.525 47.562 196.568 47.5368 196.595 47.4982C198.84 44.3432 200.161 40.4847 200.161 36.3176Z" fill="#6EA97D"/>
<path fill-rule="evenodd" clip-rule="evenodd" d="M191.4 32.744C186.892 29.2582 181.364 33.2554 181.364 36.6564L181.125 45.0121C181.122 45.1277 181.007 45.2065 180.898 45.168C176.807 43.7238 172.273 42.8645 165.47 44.9078C164.971 45.0577 164.46 45.2231 163.936 45.405C163.887 45.422 163.865 45.4787 163.889 45.5247L164.047 45.8251C164.252 46.188 164.469 46.5435 164.697 46.8911C168.146 52.1507 174.094 55.6244 180.854 55.6244C185.914 55.6244 190.52 53.6773 193.963 50.4915C194.386 50.0999 194.867 49.5661 195.268 49.1139C195.318 49.0584 195.277 48.9707 195.203 48.9717C194.475 48.9813 193.776 48.9542 193.101 48.8962C189.592 48.5947 186.748 47.4584 183.912 46.3248L183.91 46.324C183.579 46.192 183.249 46.06 182.918 45.9293C182.853 45.9037 182.81 45.8409 182.81 45.771V38.6976C187.828 39.9748 191.23 36.8279 191.4 32.744ZM182.81 37.083C183.235 33.3408 188.253 32.15 189.699 33.5959C189.189 36.6564 186.127 38.4439 182.81 37.083ZM182.13 47.6357C184.879 48.7464 187.771 49.9145 191.49 50.3337C188.536 52.579 184.85 53.9119 180.854 53.9119C174.846 53.9119 169.542 50.9007 166.367 46.3054C173.35 44.0883 177.542 45.7819 182.13 47.6357Z" fill="#6EA97D"/>
<path d="M0 187.305L19.5299 138.618H32.1831L51.5066 187.305H38.097L35.6902 180.428H15.8165L13.3408 187.305H0ZM19.7362 169.219H31.7704L25.8565 152.509L19.7362 169.219Z" fill="#0F1028"/>
<path d="M71.6044 187.305V138.618H84.0512V187.305H71.6044Z" fill="#0F1028"/>
<path d="M130.636 187.855C125.593 187.855 121.261 186.87 117.639 184.898C114.017 182.881 111.244 180.039 109.318 176.371C107.393 172.658 106.43 168.28 106.43 163.237C106.43 158.056 107.416 153.586 109.387 149.827C111.404 146.022 114.201 143.111 117.777 141.094C121.398 139.031 125.616 137.999 130.43 137.999C134.235 137.999 137.696 138.687 140.814 140.062C143.977 141.437 146.544 143.5 148.516 146.251C150.487 149.002 151.656 152.486 152.023 156.704H140.264C139.713 154.503 138.682 152.807 137.169 151.615C135.656 150.377 133.547 149.758 130.842 149.758C127.954 149.758 125.662 150.4 123.966 151.684C122.27 152.967 121.055 154.595 120.321 156.566C119.633 158.537 119.29 160.578 119.29 162.686C119.29 164.795 119.656 166.881 120.39 168.944C121.169 171.007 122.407 172.726 124.103 174.102C125.845 175.431 128.161 176.096 131.049 176.096C132.791 176.096 134.304 175.844 135.587 175.34C136.871 174.789 137.926 174.01 138.751 173.002C139.622 171.947 140.218 170.686 140.539 169.219H152.573C152.298 173.345 151.106 176.807 148.997 179.603C146.888 182.354 144.206 184.417 140.951 185.792C137.742 187.168 134.304 187.855 130.636 187.855Z" fill="#0F1028"/>
<path d="M197.502 187.855C192.551 187.855 188.219 186.824 184.505 184.761C180.792 182.698 177.903 179.809 175.84 176.096C173.823 172.337 172.815 167.982 172.815 163.03C172.815 157.942 173.869 153.54 175.978 149.827C178.087 146.068 181.021 143.157 184.78 141.094C188.539 139.031 192.895 137.999 197.846 137.999C202.751 137.999 207.061 139.008 210.774 141.025C214.488 143.042 217.399 145.907 219.508 149.621C221.616 153.288 222.671 157.644 222.671 162.686C222.671 167.638 221.616 172.016 219.508 175.821C217.445 179.58 214.511 182.537 210.705 184.692C206.946 186.801 202.545 187.855 197.502 187.855ZM197.777 176.096C200.711 176.096 203.072 175.431 204.86 174.102C206.648 172.726 207.932 171.03 208.711 169.013C209.536 166.996 209.949 165.002 209.949 163.03C209.949 161.563 209.72 160.073 209.261 158.56C208.849 157.002 208.161 155.558 207.198 154.228C206.281 152.899 205.044 151.821 203.485 150.996C201.926 150.171 200.001 149.758 197.708 149.758C194.82 149.758 192.482 150.423 190.694 151.752C188.906 153.036 187.6 154.687 186.774 156.704C185.949 158.721 185.537 160.807 185.537 162.962C185.537 165.116 185.949 167.202 186.774 169.219C187.645 171.237 188.975 172.887 190.763 174.171C192.597 175.454 194.935 176.096 197.777 176.096Z" fill="#0F1028"/>
<path d="M245.037 187.305V138.618H256.659L277.22 166.469V138.618H289.667V187.305H278.389L257.484 159.867V187.305H245.037Z" fill="#0F1028"/>
<path d="M336.718 187.855C331.767 187.855 327.434 186.824 323.721 184.761C320.008 182.698 317.119 179.809 315.056 176.096C313.039 172.337 312.031 167.982 312.031 163.03C312.031 157.942 313.085 153.54 315.194 149.827C317.303 146.068 320.237 143.157 323.996 141.094C327.755 139.031 332.111 137.999 337.062 137.999C341.967 137.999 346.277 139.008 349.99 141.025C353.704 143.042 356.615 145.907 358.724 149.621C360.832 153.288 361.887 157.644 361.887 162.686C361.887 167.638 360.832 172.016 358.724 175.821C356.661 179.58 353.726 182.537 349.921 184.692C346.162 186.801 341.761 187.855 336.718 187.855ZM336.993 176.096C339.927 176.096 342.288 175.431 344.076 174.102C345.864 172.726 347.148 171.03 347.927 169.013C348.752 166.996 349.165 165.002 349.165 163.03C349.165 161.563 348.936 160.073 348.477 158.56C348.065 157.002 347.377 155.558 346.414 154.228C345.497 152.899 344.26 151.821 342.701 150.996C341.142 150.171 339.217 149.758 336.924 149.758C334.036 149.758 331.698 150.423 329.91 151.752C328.122 153.036 326.816 154.687 325.99 156.704C325.165 158.721 324.753 160.807 324.753 162.962C324.753 165.116 325.165 167.202 325.99 169.219C326.861 171.237 328.191 172.887 329.979 174.171C331.813 175.454 334.151 176.096 336.993 176.096Z" fill="#0F1028"/>
<path d="M7.01172 216.352V206.448H14.0019V208.045H8.76276V210.65H13.3155V212.219H8.76276V214.755H14.0019V216.352H7.01172Z" fill="#101129"/>
<path d="M19.2013 216.352V206.448H21.0784L25.8553 213.662V206.448H27.6063V216.352H25.7712L20.9523 209.179V216.352H19.2013Z" fill="#101129"/>
<path d="M33.3471 216.352V206.448H40.3373V208.045H35.0982V210.65H39.6509V212.219H35.0982V214.755H40.3373V216.352H33.3471Z" fill="#101129"/>
<path d="M45.5367 216.352V206.448H49.445C49.9493 206.448 50.4256 206.499 50.8739 206.602C51.3222 206.695 51.7191 206.863 52.0646 207.106C52.4101 207.339 52.681 207.662 52.8771 208.073C53.0732 208.483 53.1713 208.992 53.1713 209.599C53.1713 210.104 53.0825 210.547 52.9051 210.93C52.7277 211.313 52.4802 211.635 52.1627 211.897C51.8545 212.158 51.4856 212.359 51.056 212.499L53.2273 216.352H51.2661L49.319 212.779H47.2877V216.352H45.5367ZM47.2877 211.224H49.2069C49.5244 211.224 49.8139 211.201 50.0754 211.154C50.3462 211.098 50.5797 211.01 50.7758 210.888C50.9813 210.767 51.1354 210.603 51.2381 210.398C51.3502 210.183 51.4109 209.912 51.4202 209.585C51.4202 209.193 51.3362 208.885 51.1681 208.661C51.0093 208.437 50.7758 208.278 50.4676 208.185C50.1688 208.091 49.8093 208.045 49.389 208.045H47.2877V211.224Z" fill="#101129"/>
<path d="M62.7209 216.464C61.7123 216.464 60.8578 216.253 60.1574 215.833C59.457 215.404 58.9247 214.811 58.5604 214.054C58.2056 213.288 58.0281 212.406 58.0281 211.407C58.0281 210.65 58.1262 209.964 58.3223 209.347C58.5277 208.731 58.8266 208.199 59.2188 207.75C59.6204 207.293 60.1107 206.943 60.6897 206.7C61.2687 206.448 61.9365 206.322 62.6929 206.322C63.4307 206.322 64.0891 206.443 64.6681 206.686C65.2564 206.919 65.7374 207.265 66.1109 207.722C66.4938 208.18 66.7507 208.74 66.8814 209.403H65.0743C64.9996 209.086 64.8549 208.82 64.6401 208.605C64.4346 208.39 64.1731 208.227 63.8556 208.115C63.5381 208.003 63.1739 207.946 62.7629 207.946C62.2306 207.946 61.7777 208.04 61.4041 208.227C61.0306 208.413 60.7271 208.67 60.4936 208.997C60.2601 209.315 60.0873 209.684 59.9753 210.104C59.8726 210.515 59.8212 210.954 59.8212 211.421C59.8212 212.028 59.9192 212.593 60.1154 213.116C60.3208 213.639 60.6383 214.059 61.0679 214.376C61.5069 214.685 62.0765 214.839 62.777 214.839C63.2719 214.839 63.7062 214.755 64.0797 214.586C64.4626 214.418 64.7615 214.176 64.9763 213.858C65.2004 213.531 65.3218 213.13 65.3405 212.653H62.4548V211.14H67.1055V211.785C67.1055 212.747 66.9374 213.578 66.6012 214.278C66.265 214.979 65.7701 215.52 65.1164 215.903C64.472 216.277 63.6735 216.464 62.7209 216.464Z" fill="#101129"/>
<path d="M72.2962 216.352V206.448H74.0472V216.352H72.2962Z" fill="#101129"/>
<path d="M79.7935 216.352V206.448H86.7837V208.045H81.5446V210.65H86.0973V212.219H81.5446V214.755H86.7837V216.352H79.7935Z" fill="#101129"/>
<path d="M93.0552 216.52C92.7563 216.52 92.4995 216.422 92.2847 216.225C92.0793 216.029 91.9765 215.763 91.9765 215.427C91.9765 215.091 92.0839 214.825 92.2987 214.628C92.5135 214.423 92.7703 214.32 93.0692 214.32C93.368 214.32 93.6202 214.423 93.8256 214.628C94.0311 214.825 94.1338 215.091 94.1338 215.427C94.1338 215.763 94.0311 216.029 93.8256 216.225C93.6202 216.422 93.3634 216.52 93.0552 216.52Z" fill="#101129"/>
<path d="M108.039 216.352L104.383 206.448H106.288L109.229 214.867L112.129 206.448H114.02L110.392 216.352H108.039Z" fill="#101129"/>
<path d="M118.771 216.352V206.448H125.761V208.045H120.522V210.65H125.074V212.219H120.522V214.755H125.761V216.352H118.771Z" fill="#101129"/>
<path d="M130.96 216.352V206.448H134.869C135.373 206.448 135.849 206.499 136.297 206.602C136.746 206.695 137.143 206.863 137.488 207.106C137.834 207.339 138.104 207.662 138.301 208.073C138.497 208.483 138.595 208.992 138.595 209.599C138.595 210.104 138.506 210.547 138.329 210.93C138.151 211.313 137.904 211.635 137.586 211.897C137.278 212.158 136.909 212.359 136.479 212.499L138.651 216.352H136.69L134.742 212.779H132.711V216.352H130.96ZM132.711 211.224H134.63C134.948 211.224 135.237 211.201 135.499 211.154C135.77 211.098 136.003 211.01 136.199 210.888C136.405 210.767 136.559 210.603 136.662 210.398C136.774 210.183 136.834 209.912 136.844 209.585C136.844 209.193 136.76 208.885 136.592 208.661C136.433 208.437 136.199 208.278 135.891 208.185C135.592 208.091 135.233 208.045 134.812 208.045H132.711V211.224Z" fill="#101129"/>
<path d="M147.682 216.464C147.019 216.464 146.393 216.366 145.805 216.169C145.226 215.964 144.74 215.642 144.348 215.203C143.956 214.755 143.699 214.171 143.578 213.452H145.357C145.469 213.816 145.646 214.101 145.889 214.306C146.141 214.512 146.435 214.656 146.772 214.741C147.108 214.815 147.449 214.853 147.794 214.853C148.102 214.853 148.392 214.815 148.663 214.741C148.943 214.656 149.172 214.521 149.349 214.334C149.536 214.148 149.629 213.9 149.629 213.592C149.629 213.358 149.578 213.172 149.475 213.032C149.382 212.882 149.246 212.761 149.069 212.667C148.901 212.565 148.695 212.485 148.453 212.429C148.219 212.354 147.967 212.289 147.696 212.233C147.425 212.177 147.159 212.116 146.898 212.051C146.636 211.986 146.389 211.902 146.155 211.799C145.856 211.696 145.567 211.579 145.287 211.449C145.016 211.308 144.778 211.14 144.572 210.944C144.376 210.748 144.217 210.505 144.096 210.216C143.975 209.926 143.914 209.581 143.914 209.179C143.914 208.722 143.989 208.329 144.138 208.003C144.297 207.666 144.502 207.391 144.754 207.176C145.016 206.961 145.305 206.793 145.623 206.672C145.95 206.55 146.286 206.462 146.631 206.406C146.986 206.35 147.323 206.322 147.64 206.322C148.256 206.322 148.817 206.424 149.321 206.63C149.835 206.835 150.255 207.153 150.582 207.582C150.909 208.012 151.095 208.563 151.142 209.235H149.447C149.41 208.918 149.298 208.666 149.111 208.479C148.924 208.283 148.691 208.143 148.411 208.059C148.13 207.965 147.827 207.918 147.5 207.918C147.276 207.918 147.052 207.937 146.828 207.974C146.613 208.012 146.417 208.077 146.239 208.171C146.071 208.264 145.931 208.39 145.819 208.549C145.716 208.698 145.665 208.89 145.665 209.123C145.665 209.329 145.716 209.511 145.819 209.67C145.922 209.819 146.062 209.945 146.239 210.048C146.426 210.15 146.645 210.244 146.898 210.328C147.225 210.459 147.579 210.557 147.962 210.622C148.355 210.687 148.723 210.776 149.069 210.888C149.405 210.982 149.713 211.098 149.993 211.238C150.283 211.369 150.53 211.533 150.736 211.729C150.941 211.916 151.1 212.149 151.212 212.429C151.334 212.7 151.394 213.027 151.394 213.41C151.394 213.97 151.292 214.446 151.086 214.839C150.89 215.221 150.615 215.534 150.26 215.777C149.914 216.02 149.517 216.197 149.069 216.309C148.63 216.412 148.168 216.464 147.682 216.464Z" fill="#101129"/>
<path d="M158.727 216.352V208.045H155.631V206.448H163.56V208.045H160.464V216.352H158.727Z" fill="#101129"/>
<path d="M168.336 216.352V206.448H175.326V208.045H170.087V210.65H174.64V212.219H170.087V214.755H175.326V216.352H168.336Z" fill="#101129"/>
<path d="M180.526 216.352V206.448H182.277V210.678H186.899V206.448H188.636V216.352H186.899V212.275H182.277V216.352H180.526Z" fill="#101129"/>
<path d="M194.384 216.352V206.448H201.374V208.045H196.135V210.65H200.688V212.219H196.135V214.755H201.374V216.352H194.384Z" fill="#101129"/>
<path d="M206.574 216.352V206.448H208.451L213.228 213.662V206.448H214.979V216.352H213.144L208.325 209.179V216.352H206.574Z" fill="#101129"/>
<path d="M221.518 216.52C221.219 216.52 220.962 216.422 220.748 216.225C220.542 216.029 220.439 215.763 220.439 215.427C220.439 215.091 220.547 214.825 220.762 214.628C220.976 214.423 221.233 214.32 221.532 214.32C221.831 214.32 222.083 214.423 222.288 214.628C222.494 214.825 222.597 215.091 222.597 215.427C222.597 215.763 222.494 216.029 222.288 216.225C222.083 216.422 221.826 216.52 221.518 216.52Z" fill="#101129"/>
<path d="M236.502 216.352L232.845 206.448H234.751L237.692 214.867L240.592 206.448H242.483L238.855 216.352H236.502Z" fill="#101129"/>
<path d="M247.233 216.352V206.448H254.224V208.045H248.985V210.65H253.537V212.219H248.985V214.755H254.224V216.352H247.233Z" fill="#101129"/>
<path d="M259.423 216.352V206.448H263.331C263.836 206.448 264.312 206.499 264.76 206.602C265.208 206.695 265.605 206.863 265.951 207.106C266.296 207.339 266.567 207.662 266.763 208.073C266.96 208.483 267.058 208.992 267.058 209.599C267.058 210.104 266.969 210.547 266.791 210.93C266.614 211.313 266.367 211.635 266.049 211.897C265.741 212.158 265.372 212.359 264.942 212.499L267.114 216.352H265.152L263.205 212.779H261.174V216.352H259.423ZM261.174 211.224H263.093C263.411 211.224 263.7 211.201 263.962 211.154C264.233 211.098 264.466 211.01 264.662 210.888C264.868 210.767 265.022 210.603 265.124 210.398C265.237 210.183 265.297 209.912 265.307 209.585C265.307 209.193 265.223 208.885 265.054 208.661C264.896 208.437 264.662 208.278 264.354 208.185C264.055 208.091 263.696 208.045 263.275 208.045H261.174V211.224Z" fill="#101129"/>
<path d="M271.41 216.352L275.206 206.448H277.294L281.076 216.352H279.185L278.526 214.516H273.96L273.287 216.352H271.41ZM274.52 212.933H277.952L276.243 208.213L274.52 212.933ZM277.91 205.537C277.639 205.537 277.401 205.453 277.196 205.285C276.999 205.107 276.901 204.865 276.901 204.556C276.901 204.248 276.999 204.005 277.196 203.828C277.401 203.641 277.644 203.548 277.924 203.548C278.195 203.548 278.428 203.641 278.624 203.828C278.83 204.005 278.933 204.248 278.933 204.556C278.933 204.865 278.83 205.107 278.624 205.285C278.428 205.453 278.19 205.537 277.91 205.537ZM274.576 205.537C274.296 205.537 274.058 205.453 273.862 205.285C273.666 205.107 273.567 204.865 273.567 204.556C273.567 204.248 273.666 204.005 273.862 203.828C274.067 203.641 274.305 203.548 274.576 203.548C274.856 203.548 275.094 203.641 275.29 203.828C275.496 204.005 275.599 204.248 275.599 204.556C275.599 204.865 275.496 205.107 275.29 205.285C275.094 205.453 274.856 205.537 274.576 205.537Z" fill="#101129"/>
<path d="M285.772 216.352V206.448H287.649L292.426 213.662V206.448H294.177V216.352H292.342L287.523 209.179V216.352H285.772Z" fill="#101129"/>
<path d="M299.918 216.352V206.448H303.574C304.611 206.448 305.489 206.648 306.208 207.05C306.927 207.442 307.473 208.012 307.847 208.759C308.23 209.497 308.421 210.384 308.421 211.421C308.421 212.438 308.234 213.316 307.861 214.054C307.496 214.792 306.955 215.362 306.236 215.763C305.517 216.155 304.634 216.352 303.588 216.352H299.918ZM301.669 214.755H303.546C304.284 214.755 304.877 214.614 305.325 214.334C305.783 214.045 306.114 213.653 306.32 213.158C306.535 212.653 306.642 212.07 306.642 211.407C306.642 210.762 306.539 210.188 306.334 209.684C306.128 209.179 305.797 208.782 305.339 208.493C304.891 208.194 304.298 208.045 303.56 208.045H301.669V214.755Z" fill="#101129"/>
<path d="M313.626 216.352V206.448H320.616V208.045H315.377V210.65H319.93V212.219H315.377V214.755H320.616V216.352H313.626Z" fill="#101129"/>
<path d="M325.816 216.352V206.448H329.724C330.228 206.448 330.705 206.499 331.153 206.602C331.601 206.695 331.998 206.863 332.343 207.106C332.689 207.339 332.96 207.662 333.156 208.073C333.352 208.483 333.45 208.992 333.45 209.599C333.45 210.104 333.361 210.547 333.184 210.93C333.007 211.313 332.759 211.635 332.442 211.897C332.133 212.158 331.764 212.359 331.335 212.499L333.506 216.352H331.545L329.598 212.779H327.567V216.352H325.816ZM327.567 211.224H329.486C329.803 211.224 330.093 211.201 330.354 211.154C330.625 211.098 330.859 211.01 331.055 210.888C331.26 210.767 331.414 210.603 331.517 210.398C331.629 210.183 331.69 209.912 331.699 209.585C331.699 209.193 331.615 208.885 331.447 208.661C331.288 208.437 331.055 208.278 330.747 208.185C330.448 208.091 330.088 208.045 329.668 208.045H327.567V211.224Z" fill="#101129"/>
<path d="M338.853 216.352V206.448H340.73L345.507 213.662V206.448H347.258V216.352H345.423L340.604 209.179V216.352H338.853Z" fill="#101129"/>
<path d="M353.798 216.52C353.499 216.52 353.242 216.422 353.027 216.225C352.822 216.029 352.719 215.763 352.719 215.427C352.719 215.091 352.826 214.825 353.041 214.628C353.256 214.423 353.513 214.32 353.812 214.32C354.11 214.32 354.363 214.423 354.568 214.628C354.774 214.825 354.876 215.091 354.876 215.427C354.876 215.763 354.774 216.029 354.568 216.225C354.363 216.422 354.106 216.52 353.798 216.52Z" fill="#101129"/>
<defs>
<linearGradient id="paint0_linear_470_4333" x1="180.943" y1="0" x2="180.943" y2="122.307" gradientUnits="userSpaceOnUse">
<stop stop-color="#6FA580"/>
<stop offset="1" stop-color="#3E8186"/>
</linearGradient>
</defs>
</svg>
